<?xml version="1.0"?>
<svg xmlns:rdf="http://www.w3.org/1999/02/22-rdf-syntax-ns#" xmlns="http://www.w3.org/2000/svg" xmlns:cc="http://web.resource.org/cc/" xmlns:dc="http://purl.org/dc/elements/1.1/" xmlns:svg="http://www.w3.org/2000/svg" viewBox="0 0 468 165" version="1.0">
  <g transform="translate(0 165) scale(.027433 -.027433)">
    <path d="m1410 5575c0-210-4-325-10-325-5 0-10-7-10-15 0-12-14-15-68-15-56 0-70-3-82-20-8-11-22-20-32-20s-18-4-18-10c0-5-24-10-53-10-41 0-56-4-67-20-9-13-26-20-47-20-18 0-33-5-33-11 0-19-28-39-54-39-14 0-26-4-26-10 0-5-7-10-15-10s-15-4-15-10c0-5-9-10-20-10s-20-4-20-10c0-5-9-10-20-10s-20-5-20-11c0-17-27-39-47-39-10 0-25-9-33-20s-22-20-32-20c-11 0-18-7-18-20 0-11-7-20-15-20s-15-7-15-15-8-15-18-15-24-9-32-20-22-20-32-20c-11 0-18-7-18-20 0-11-7-20-15-20-9 0-15-9-15-21s-14-34-30-49c-17-15-30-35-30-44s-4-16-10-16c-5 0-10-7-10-15s-4-15-10-15c-5 0-10-9-10-20s-7-20-15-20-15-9-15-20-4-20-10-20c-5 0-10-6-10-13s-9-19-20-27c-14-10-20-26-20-52 0-21-4-38-10-38-5 0-10-11-10-25 0-16-6-25-15-25-11 0-15-12-15-45 0-25-4-45-10-45-5 0-10-13-10-30 0-16-4-30-10-30s-10-43-10-110-4-110-10-110-10-35-10-85 4-85 10-85 10-43 10-110 4-110 10-110 10-20 10-45 5-45 10-45c6 0 10-20 10-45 0-33 4-45 15-45 8 0 15-9 15-20s5-20 10-20c6 0 10-13 10-30 0-16 5-30 10-30 6 0 10-7 10-15s5-15 10-15c6 0 10-12 10-26 0-26 20-54 39-54 6 0 11-11 11-25s5-25 10-25c6 0 10-7 10-16s14-29 30-44c17-15 30-37 30-49 0-16 6-21 25-21 18 0 25-5 25-20 0-12 7-20 16-20 15 0 44-23 44-35 0-13 50-55 66-55 9 0 29-14 44-30 15-17 37-30 49-30s21-6 21-15c0-8 9-15 20-15 13 0 20-7 20-20 0-16 7-20 30-20 17 0 30-4 30-10 0-5 7-10 15-10s15-4 15-10c0-5 14-10 30-10 20 0 30-5 30-15 0-9 9-15 25-15 14 0 25-4 25-10 0-5 14-10 30-10 17 0 30-4 30-10 0-5 9-10 20-10s20-4 20-10c0-5 20-10 45-10s45-4 45-10c0-5 16-10 35-10s35-4 35-10c0-5 14-10 30-10 20 0 30-5 30-15 0-9 9-15 25-15 14 0 25-4 25-10 0-5 14-10 30-10 17 0 30-4 30-10s28-10 65-10 65-4 65-10c0-5 11-10 25-10s25-4 25-10c0-5 18-10 40-10 29 0 40-4 40-15s12-15 45-15c25 0 45-4 45-10 0-5 25-10 55-10s55-4 55-10c0-5 25-10 55-10s55-4 55-10c0-5 9-10 20-10s20-4 20-10c0-5 16-10 35-10s35-4 35-10c0-5 18-10 40-10 29 0 40-4 40-15s12-15 45-15c25 0 45-4 45-10 0-5 9-10 20-10s20-4 20-10c0-5 10-10 23-10 12 0 29-9 37-20 9-13 26-20 47-20 18 0 33-4 33-10 0-5 9-10 20-10s20-7 20-15 5-15 10-15c6 0 10-9 10-20s5-20 10-20c6 0 10-9 10-20s5-20 10-20c6 0 10-33 10-80s-4-80-10-80c-5 0-10-13-10-28 0-16-8-34-20-42-11-8-20-18-20-23 0-18-30-37-59-37-17 0-31-4-31-10 0-5-20-10-45-10s-45-4-45-10-35-10-85-10-85-4-85-10-53-10-140-10-140 4-140 10-25 10-55 10-55 5-55 10c0 6-28 10-65 10s-65 4-65 10-25 10-55 10-55 5-55 10c0 6-16 10-35 10-24 0-35 5-35 15 0 8-9 15-20 15s-20 5-20 10c0 6-20 10-45 10s-45 5-45 10c0 6-9 10-20 10s-20 5-20 10c0 6-11 10-25 10s-25 5-25 10c0 6-13 10-30 10-20 0-30 5-30 15s-10 15-33 15c-21 0-38 7-47 20-10 14-26 20-52 20-21 0-38 5-38 10 0 6-6 10-13 10s-19 9-27 20-22 20-32 20-18 5-18 11c0 21-29 39-65 39-38 0-65 18-65 44 0 10-9 16-25 16s-25 6-25 15c0 10-10 15-30 15-24 0-30-4-30-21 0-22-22-49-39-49-6 0-11-4-11-10 0-5-9-10-20-10-16 0-20-7-20-35 0-19-4-35-10-35-5 0-10-9-10-20 0-13-7-20-20-20-17 0-20-7-20-45 0-25-5-45-10-45-19 0-60-48-60-70 0-11-4-20-10-20-5 0-10-7-10-15 0-18-43-65-60-65-5 0-10-11-10-25s-4-25-10-25c-5 0-10-9-10-20 0-13-7-20-20-20-16 0-20-7-20-31 0-30-19-59-39-59-6 0-11-9-11-20s-4-20-10-20c-5 0-10-9-10-20s-4-20-10-20c-5 0-10-7-10-15s-4-15-10-15c-5 0-10-9-10-20s-4-20-10-20c-5 0-10-9-10-20s-4-20-10-20c-5 0-10-7-10-15s-7-15-15-15-15-8-15-18-9-24-20-32c-39-28-18-100 29-100 12 0 21-4 21-10 0-5 9-10 20-10s20-4 20-10c0-5 7-10 16-10 18 0 44-23 44-39 0-6 11-11 25-11s25-4 25-10c0-5 9-10 20-10s20-4 20-10c0-5 11-10 25-10s25-4 25-10c0-5 9-10 20-10s20-4 20-10c0-5 9-10 20-10s20-4 20-10c0-5 16-10 35-10 24 0 35-5 35-15 0-8 9-15 20-15s20-4 20-10c0-5 9-10 20-10s20-4 20-10c0-5 16-10 35-10s35-4 35-10c0-5 16-10 35-10s35-4 35-10c0-5 14-10 30-10 20 0 30-5 30-15 0-8 9-15 20-15s20-4 20-10c0-5 16-10 35-10s35-4 35-10c0-5 25-10 55-10s55-4 55-10c0-5 9-10 20-10s20-4 20-10c0-5 20-10 45-10s45-4 45-10c0-5 20-10 45-10 33 0 45-4 45-15s11-15 40-15c22 0 40-4 40-10 0-5 11-10 25-10h25v-630h1240v311c0 331 1 339 49 339 12 0 21 6 21 15 0 10 10 15 30 15 17 0 30 5 30 10 0 6 20 10 45 10s45 5 45 10c0 6 14 10 30 10 17 0 30 5 30 10 0 6 16 10 35 10s35 5 35 10c0 6 9 10 20 10s20 5 20 10c0 6 16 10 35 10 24 0 35 5 35 15 0 8 9 15 20 15s20 5 20 10c0 6 9 10 20 10s20 5 20 10c0 6 9 10 20 10 22 0 70 41 70 60 0 5 14 10 31 10 23 0 40 10 69 40 21 22 46 40 55 40 17 0 45 23 45 37 0 5 9 15 20 23s20 21 20 30 9 22 20 30 20 20 20 27 5 13 10 13c15 0 60 47 60 62 0 8 9 20 20 28s20 25 20 37c0 14 6 23 15 23 8 0 15 9 15 20s5 20 10 20c6 0 10 11 10 25s5 25 10 25c6 0 10 9 10 20s5 20 10 20c6 0 10 9 10 20s5 20 10 20c6 0 10 11 10 25s5 25 10 25c6 0 10 18 10 40 0 29 4 40 15 40 12 0 15 13 15 55 0 30 5 55 10 55 6 0 10 25 10 55s5 55 10 55c6 0 10 68 10 185s-4 185-10 185-10 32-10 75-4 75-10 75c-5 0-10 20-10 45 0 33-4 45-15 45-10 0-15 11-15 35 0 19-4 35-10 35-5 0-10 9-10 20s-4 20-10 20c-5 0-10 16-10 35s-4 35-10 35c-5 0-10 9-10 20s-4 20-10 20c-5 0-10 14-10 31 0 27-19 59-35 59-19 0-55 52-55 80 0 23-4 30-20 30-11 0-20 5-20 10 0 6-5 10-10 10-19 0-60 48-60 70 0 16-6 20-30 20-23 0-30 4-30 20 0 11-7 20-15 20s-15 9-15 20c0 13-7 20-20 20-11 0-20 5-20 10 0 6-9 10-20 10s-20 7-20 15c0 10-11 15-35 15-28 0-35 4-35 20s-7 20-30 20c-16 0-30 5-30 10 0 6-7 10-15 10s-15 5-15 10c0 6-9 10-20 10s-20 7-20 15c0 10-10 15-30 15-16 0-30 5-30 10 0 6-11 10-25 10s-25 5-25 10c0 6-9 10-20 10s-20 5-20 10c0 6-16 10-35 10-28 0-35 4-35 20 0 18-7 20-65 20-40 0-65 4-65 11 0 19-28 39-54 39-14 0-26 5-26 10 0 6-16 10-35 10s-35 5-35 10c0 6-16 10-35 10s-35 5-35 10c0 6-18 10-40 10-29 0-40 4-40 15s-12 15-45 15c-25 0-45 5-45 10 0 6-20 10-45 10s-45 5-45 10c0 6-18 10-40 10s-40 5-40 10c0 6-25 10-55 10s-55 5-55 10c0 6-20 10-45 10s-45 5-45 10c0 6-20 10-45 10-33 0-45 4-45 15 0 10-10 15-30 15-16 0-30 5-30 10 0 6-16 10-35 10s-35 5-35 10c0 6-13 10-30 10-16 0-30 5-30 10 0 6-7 10-15 10s-15 5-15 10c0 6-22 10-50 10-47 0-50 2-50 25 0 18-5 25-20 25-27 0-90 63-90 90 0 11-7 20-15 20-11 0-15 12-15 50s4 50 15 50c9 0 15 9 15 25 0 14 5 25 10 25 6 0 10 14 10 30 0 17 5 30 10 30 6 0 10 7 10 15s9 15 20 15 20 5 20 10c0 6 11 10 25 10s25 5 25 10c0 6 14 10 30 10 17 0 30 5 30 10 0 6 87 10 240 10s240-4 240-10 32-10 75-10 75-4 75-10c0-5 20-10 45-10s45-4 45-10c0-5 25-10 55-10 42 0 55-3 55-15 0-8 9-15 20-15s20-4 20-10c0-5 11-10 25-10s25-4 25-10c0-5 14-10 30-10 17 0 30-4 30-10 0-5 16-10 35-10s35-4 35-10c0-5 9-10 20-10s20-5 20-11c0-17 27-39 49-39 12 0 21-4 21-10 0-5 13-10 28-10 16 0 34-8 42-20 8-11 20-20 27-20s13-4 13-10c0-5 14-10 30-10 20 0 30-5 30-15 0-9 9-15 23-15 12 0 29-9 37-20s21-20 30-20 22-9 30-20c9-13 26-20 47-20 32 0 33 1 33 40 0 22 5 40 10 40 6 0 10 7 10 15s5 15 10 15c6 0 10 9 10 20 0 15 7 20 25 20s25 5 25 20c0 11 5 20 10 20 6 0 10 11 10 25s5 25 10 25c6 0 10 8 10 18s9 24 20 32 20 23 20 33c0 20 22 47 39 47 6 0 11 8 11 18s9 24 20 32 20 25 20 37c0 13 5 23 10 23 6 0 10 8 10 18s9 24 20 32 20 25 20 37c0 13 5 23 10 23 21 0 60 49 60 75 0 14 5 25 10 25 6 0 10 7 10 15s5 15 10 15c6 0 10 9 10 20s5 20 11 20c16 0 39 26 39 45 0 9 14 30 30 45 18 17 30 38 30 54 0 14 5 26 10 26 6 0 10 9 10 21 0 22-22 49-40 49-14 0-60 46-60 60 0 5-11 10-25 10s-25 5-25 10c0 6-9 10-20 10s-20 5-20 10c0 6-11 10-25 10s-25 5-25 10c0 6-8 10-18 10s-24 9-32 20c-9 13-26 20-47 20-18 0-33 5-33 11 0 16-26 39-44 39-9 0-16 5-16 10 0 6-9 10-20 10s-20 5-20 10c0 6-11 10-25 10s-25 5-25 10c0 6-20 10-45 10-33 0-45 4-45 15 0 8-9 15-20 15s-20 5-20 10c0 6-13 10-30 10-16 0-30 5-30 10 0 6-25 10-55 10s-55 5-55 10c0 6-11 10-25 10s-25 5-25 10c0 6-25 10-55 10s-55 5-55 10c0 6-9 10-20 10s-20 7-20 15c0 12-14 15-65 15h-65v650h-1240v-325z"/>
    <path d="m14037 5225c-233-320-315-394-435-395-102 0-158 40-253 183l-58 88-10-38c-5-21-15-67-21-103-19-113-32-164-57-213-29-59-60-74-118-57-53 15-167 132-233 240l-50 81-11-58c-46-237-77-316-148-370-35-27-41-28-142-28-138 1-181 15-369 120-85 47-163 85-174 85-19 0-20-4-13-47 4-27 18-82 32-123 18-52 26-98 27-150 1-95-19-133-89-169-47-25-58-26-195-25-120 0-173 6-308 32-90 18-175 32-189 32-25 0-25-1-9-25 9-13 16-34 16-45 0-12 41-73 90-137 98-126 107-150 71-209-42-68-127-112-272-138-97-18-493-66-544-66-49 0-68-9-54-26 6-8 17-14 24-14 13 0 45-32 45-44 0-5-11-6-25-4-14 3-25 2-25-1s75-50 166-104c211-126 234-146 234-201 0-90-104-193-285-281-137-66-327-149-439-191-27-10-45-19-40-20 5-2 35-8 67-14 31-6 57-15 57-19s-18-16-40-26-40-22-40-26 26-10 58-14c294-33 545-85 635-131 36-19 37-74 2-126-25-37-138-130-250-205-33-22-69-50-79-62l-19-21h56c32 0 57-4 57-9s-24-26-52-48c-50-36-51-38-27-41 14-2 87 6 163 18 153 22 363 27 417 9 53-18 72-39 65-73-13-64-73-145-218-292-81-83-148-153-148-156 0-4 29 5 65 20 36 14 68 22 72 18 4-3-22-34-58-67-35-33-55-57-44-53 11 3 92 32 180 62l160 56 146 4c130 4 147 2 163-14 48-47-31-212-176-370-23-25-38-47-35-50s29 7 59 23c29 15 57 30 61 32 16 7-25-61-61-101l-36-40 153 76c84 43 155 75 158 73 7-7-88-117-149-172-30-27-98-81-151-120-52-38-96-73-96-76-1-3 24-13 54-23 144-45 426-46 600-2 110 28 301 118 449 211 48 30 92 55 97 55s9-81 9-180c0-167 1-180 19-190 13-7 21-23 23-48l3-37 140 170c158 192 277 320 317 341 77 40 124 0 157-133 13-50 29-99 35-109 11-15 16-11 44 34 40 66 104 130 148 148 48 20 137 18 182-5 45-24 74-54 142-151 60-86 99-130 115-130 6 0 30 67 54 149 43 147 107 288 154 340 32 34 78 51 141 51 87 0 151-30 274-130l110-89v98c-1 117 21 178 74 211 45 27 166 27 274 0 97-25 327-135 465-224 56-36 109-66 117-66 27 0 3 89-74 275-34 80-38 102-42 192-5 120-1 141 34 182 55 65 240 87 441 52 122-21 183-26 183-15 0 3-9 19-21 35-11 16-19 35-17 41 3 7-19 46-49 87-106 148-97 224 39 312 114 73 291 116 618 149 238 24 349 40 355 50 3 5-18 21-47 37l-52 28 39 3c37 3 27 9-175 113-308 158-387 220-397 312-5 42-4 44 56 100 34 31 82 70 107 88 49 33 189 101 292 140 34 13 62 27 62 31s-25 15-56 25l-56 17 22 18c12 10 31 18 42 18 37 0 8 17-39 24-77 10-491 114-539 135-89 40-144 98-144 154 0 13 7 46 17 73 13 41 42 76 175 210 87 88 158 163 158 166s-21 1-47-3c-25-5-49-7-52-4-2 3 13 23 34 45l39 40h-73c-41 0-115-7-167-16-66-11-138-15-251-12-138 3-163 6-199 25-22 12-45 33-52 48-31 68-1 195 79 326 49 81 99 174 99 183 0 3-15 0-32-5-18-5-34-9-35-9-9 0 1 26 23 61 14 23 24 43 21 45-8 8-116-35-307-124-107-49-223-99-257-111-88-30-197-44-278-38-63 6-73 9-99 38-29 32-29 33-22 123 3 50 9 101 12 114 5 16 2 22-10 22s-16 10-16 40c0 22-4 40-9 40-4 0-44-30-87-66-117-97-189-142-266-165-108-33-181-14-232 59-41 59-57 123-65 260-6 88-12 127-24 140-8 9-17 31-19 47-3 28-9 22-91-90zm56-123c18-214 112-381 223-398 95-14 209 32 349 141 32 24 61 42 65 40s10-37 13-78c7-80 28-151 55-180 38-42 72-52 182-51 149 1 261 34 528 158 66 31 123 56 126 56s-13-33-34-73c-77-141-106-281-80-377 17-63 78-119 155-144 85-28 318-35 395-12 29 9 65 16 78 16 22 0 17-7-43-71-218-231-232-414-42-538 120-78 294-141 391-141 46 0 86-9 86-19 0-4-56-35-124-69-138-70-210-126-237-187-21-45-25-129-8-172 12-34 110-136 159-166 19-11 78-49 130-83s116-72 142-85c26-12 45-26 42-31-3-4-28-8-55-8-125 0-497-75-641-130-80-30-170-98-193-146-10-22-20-62-23-89-4-45 1-60 42-138 26-48 44-92 41-97-7-11-405-14-405-4 0 3 23 31 51 63 189 215 333 498 373 734 57 336 9 633-150 918-219 392-653 711-1184 869-240 71-429 90-887 90-320 0-343 1-343 18 1 33 37 183 47 193 7 7 29-11 68-56 79-90 124-115 205-115 115 0 195 59 335 247 88 118 143 183 156 183 3 0 9-31 12-68zm-1159-348c42-52 76-99 76-102 0-8-187-62-214-62-20 0-21-7 11 137 17 80 31 123 39 123 7 0 47-43 88-96zm-765-170c53-26 138-63 189-84l93-37-33-20c-67-41-337-183-347-183-7 0-6 10 1 31 10 29 7 148-8 287-3 28-3 52 1 52s51-21 104-46zm1712 35c344-27 651-107 929-240 451-217 723-520 822-916 19-75 22-115 22-278 0-173-2-200-26-295-63-251-198-481-401-682-349-347-911-604-1542-705-157-25-581-25-710 0-49 9-140 20-201 23l-112 7-119-116c-225-221-408-347-633-436-131-52-224-75-352-86-63-6-78-5-78 6 0 8 51 66 113 129 224 228 323 405 377 672l21 101-23 24c-12 13-60 50-108 82-156 107-329 308-417 486-87 173-123 330-123 529 0 369 143 692 435 981 301 299 777 535 1307 649 317 68 549 87 819 65zm-2356-424c59-9 170-15 270-15h170l-65-57c-501-435-713-906-635-1413 22-143 50-233 112-360l57-114 221-227c121-125 227-239 234-253 12-22 12-37-2-107-25-130-50-160-186-230-63-33-116-57-118-55s19 50 47 106c61 126 67 188 24 239-55 65-214 80-398 36-58-14-111-25-117-25s24 39 67 87c42 47 88 111 102 142 34 74 35 158 3 223-35 73-54 78-285 78-124 0-196 4-196 10s4 10 8 10c5 0 46 34 91 76 88 82 141 160 141 210 0 46-52 119-112 158-74 47-129 62-313 86-88 12-164 25-169 30-4 4 9 16 30 25 22 9 108 51 192 93 251 127 337 206 349 325 3 30 3 68-1 83-10 40-128 157-223 221-46 30-83 56-83 57s19 2 43 2c40 0 176 22 412 65 210 38 305 109 305 226 0 62-17 106-73 190-28 43-56 84-61 92-7 11-2 12 25 7 19-3 79-13 134-21zm3717-2447c4-116 7-129 46-229 38-95 48-129 39-129-2 0-95 43-208 96-112 53-219 102-236 110-18 8-33 18-33 23 0 4 35 29 78 54 42 25 127 80 187 121 61 41 113 75 116 75 4 1 9-54 11-121zm-792-345v-38l-26 27c-28 28-25 48 7 48 15 0 19-7 19-37zm-1582-43c39-11 72-24 72-27s-30-38-67-77c-38-39-116-133-174-208-59-75-109-134-113-131-3 4-6 67-6 142v136l96 96c53 54 102 96 108 94s44-13 84-25zm453-66c5-3-19-34-53-69-49-49-67-61-79-54-21 11-39 61-39 107v35l81-6c44-4 84-9 90-13zm539-3c0-11-69-211-79-229-8-14-61 39-131 130-19 25-49 56-67 69-26 20-29 25-15 31 26 10 292 9 292-1z"/>
    <path d="m8040 4933c-19-21-75-87-124-148-50-60-95-114-102-120-6-5-57-66-114-135s-106-127-110-130c-3-3-39-45-79-94s-93-113-119-142l-47-54h-2725v-750l1047-2 1047-3-58-70c-33-38-64-74-70-80-7-5-54-62-106-125s-99-119-105-125c-7-5-57-64-113-131l-100-121-243-6c-133-4-480-7-771-7h-528v-760h891l-48-61c-26-34-61-76-77-93s-67-78-114-136-93-112-102-122c-26-25-90-104-90-111s59-37 73-37c5 0 23-6 40-14 18-8 64-26 102-41 39-14 84-32 100-39 17-8 62-26 100-40 39-15 86-34 105-43 19-8 51-21 70-28 37-14 109-42 190-75 102-41 155-60 166-60 6 0 40 37 77 83 36 45 79 97 96 115 16 17 69 80 117 140 48 59 95 114 104 122 10 8 50 56 90 105 40 50 89 108 109 130s66 76 103 121l67 81 119 7c153 8 1177 8 1925 0l587-7v773l-990 2-989 3 64 84c36 46 71 89 79 95 7 6 47 54 88 106 99 124 169 211 243 298l60 72h1445v750h-395c-217 0-395 2-395 5 0 6 216 265 234 280 6 6 46 53 90 105l78 94-38 17c-22 9-61 26-89 37-102 40-151 60-200 80-27 12-88 35-135 53s-89 36-94 41c-6 4-16 8-24 8-7 0-32 8-55 18-23 11-69 29-102 41-33 13-85 33-115 46-95 41-101 41-140-2z"/>
  </g>
  <metadata>
    <rdf:RDF>
      <cc:Work>
        <dc:format>image/svg+xml</dc:format>
        <dc:type rdf:resource="http://purl.org/dc/dcmitype/StillImage"/>
        <cc:license rdf:resource="http://creativecommons.org/licenses/publicdomain/"/>
        <dc:publisher>
          <cc:Agent rdf:about="http://openclipart.org/">
            <dc:title>Openclipart</dc:title>
          </cc:Agent>
        </dc:publisher>
        <dc:title>Money Is Not Speech 7</dc:title>
        <dc:date>2012-02-06T15:49:35</dc:date>
        <dc:description>Money Is Not Speech</dc:description>
        <dc:source>http://openclipart.org/detail/167826/money-is-not-speech-7-by-dripsandcastle</dc:source>
        <dc:creator>
          <cc:Agent>
            <dc:title>dripsandcastle</dc:title>
          </cc:Agent>
        </dc:creator>
        <dc:subject>
          <rdf:Bag>
            <rdf:li>clip art</rdf:li>
            <rdf:li>clipart</rdf:li>
            <rdf:li>freedom</rdf:li>
            <rdf:li>money</rdf:li>
            <rdf:li>money is not speech</rdf:li>
            <rdf:li>speech</rdf:li>
          </rdf:Bag>
        </dc:subject>
      </cc:Work>
      <cc:License rdf:about="http://creativecommons.org/licenses/publicdomain/">
        <cc:permits rdf:resource="http://creativecommons.org/ns#Reproduction"/>
        <cc:permits rdf:resource="http://creativecommons.org/ns#Distribution"/>
        <cc:permits rdf:resource="http://creativecommons.org/ns#DerivativeWorks"/>
      </cc:License>
    </rdf:RDF>
  </metadata>
</svg>
